<svg width="38" height="38" viewBox="0 0 38 38" fill="none" xmlns="http://www.w3.org/2000/svg">
<path d="M25.3332 9.50008C25.3332 6.51391 25.3332 5.02241 24.4053 4.09458C23.4775 3.16675 21.986 3.16675 18.9998 3.16675C16.0137 3.16675 14.5222 3.16675 13.5943 4.09458C12.6665 5.02241 12.6665 6.51391 12.6665 9.50008M3.1665 22.1667C3.1665 16.196 3.1665 13.2098 5.02217 11.3557C6.87784 9.50166 9.86242 9.50008 15.8332 9.50008H22.1665C28.1373 9.50008 31.1234 9.50008 32.9775 11.3557C34.8316 13.2114 34.8332 16.196 34.8332 22.1667C34.8332 28.1375 34.8332 31.1237 32.9775 32.9777C31.1218 34.8318 28.1373 34.8334 22.1665 34.8334H15.8332C9.86242 34.8334 6.87625 34.8334 5.02217 32.9777C3.16809 31.1221 3.1665 28.1375 3.1665 22.1667Z" stroke="#FF0032" stroke-width="1.5"/>
<path d="M18.9997 27.4441C20.7493 27.4441 22.1663 26.2629 22.1663 24.8062C22.1663 23.3496 20.7493 22.1668 18.9997 22.1668C17.2501 22.1668 15.833 20.9857 15.833 19.5274C15.833 18.0707 17.2501 16.8896 18.9997 16.8896M18.9997 27.4441C17.2501 27.4441 15.833 26.2629 15.833 24.8062M18.9997 27.4441V28.5002M18.9997 16.8896V15.8335M18.9997 16.8896C20.7493 16.8896 22.1663 18.0707 22.1663 19.5274" stroke="#FF0032" stroke-width="1.5" stroke-linecap="round"/>
</svg>
