<svg width="38" height="38" viewBox="0 0 38 38" fill="none" xmlns="http://www.w3.org/2000/svg">
<path d="M33.5588 14.2738L29.9591 5.32595C29.9583 5.32421 29.9574 5.32276 29.9568 5.32102C29.9525 5.3103 29.9473 5.29986 29.9423 5.28942C29.9388 5.28218 29.9357 5.27493 29.9319 5.26826C29.927 5.25898 29.9215 5.25028 29.9159 5.2413C29.9113 5.23405 29.9073 5.22593 29.9023 5.21868C29.8974 5.21144 29.8913 5.20361 29.8855 5.19607C29.88 5.18853 29.8742 5.18041 29.8684 5.17288C29.8623 5.16563 29.8556 5.15867 29.8493 5.15171C29.8429 5.14475 29.8371 5.1378 29.8307 5.13113C29.8243 5.12446 29.8148 5.11663 29.8069 5.1091C29.8009 5.10388 29.7951 5.09808 29.789 5.09286C29.7808 5.08619 29.7722 5.0801 29.7635 5.07373C29.7568 5.0688 29.7501 5.06358 29.7432 5.05923C29.7362 5.05488 29.7272 5.04937 29.7194 5.04473C29.7116 5.0398 29.7023 5.03401 29.6936 5.02937C29.6863 5.0256 29.6791 5.02241 29.6715 5.01893C29.6611 5.014 29.651 5.00878 29.6402 5.00444L29.6353 5.00212C29.6298 4.9998 29.624 4.99835 29.6185 4.99632C29.6075 4.99226 29.5965 4.98849 29.5854 4.98501C29.5776 4.98269 29.5698 4.98066 29.5617 4.97863C29.5509 4.97602 29.5405 4.97342 29.5298 4.97139C29.5214 4.96965 29.513 4.96849 29.5046 4.96733C29.4941 4.96559 29.4837 4.96414 29.473 4.96327C29.4645 4.9624 29.4561 4.96211 29.4477 4.96153C29.437 4.96095 29.4266 4.96037 29.4158 4.96037C29.4074 4.96037 29.3993 4.96095 29.3909 4.96124C29.3802 4.96182 29.3697 4.9624 29.359 4.96327C29.3506 4.96414 29.3422 4.9653 29.3338 4.96675C29.3234 4.9682 29.3132 4.96965 29.3031 4.97168C29.2929 4.9737 29.2848 4.97573 29.2758 4.97805C29.2668 4.98037 29.2575 4.9824 29.2486 4.9853C29.2378 4.98849 29.2274 4.99255 29.217 4.99632C29.2112 4.99864 29.2051 5.00009 29.1993 5.00241C29.1975 5.00328 29.1961 5.00415 29.1943 5.00473C29.1833 5.00936 29.1723 5.01458 29.1616 5.0198C29.1549 5.02299 29.148 5.02618 29.1416 5.02966C29.1317 5.03488 29.1222 5.04097 29.1123 5.04676C29.1094 5.0485 29.1062 5.05024 29.1036 5.05198L21.2438 5.0514C21.1687 4.30283 20.7255 3.64095 20.0618 3.2867C19.3979 2.93243 18.6015 2.93243 17.9379 3.2867C17.274 3.64098 16.8307 4.30283 16.7556 5.0514H8.89658C8.89397 5.04966 8.89107 5.04821 8.88818 5.04647C8.87832 5.04039 8.86846 5.0343 8.8586 5.02908C8.85252 5.02589 8.84585 5.02299 8.83976 5.02009C8.82845 5.01458 8.81715 5.00907 8.80584 5.00444C8.8041 5.00386 8.80294 5.00299 8.8012 5.00241C8.79598 5.00038 8.79076 4.99893 8.78555 4.99719C8.77424 4.99284 8.76264 4.98878 8.75105 4.9853C8.7438 4.98298 8.73568 4.98124 8.72814 4.97921C8.71741 4.97631 8.70611 4.9737 8.69567 4.97196C8.68755 4.97022 8.67915 4.96907 8.67074 4.96791C8.6603 4.96617 8.64957 4.96472 8.63914 4.96385C8.63073 4.96298 8.62232 4.96269 8.61391 4.96211C8.60319 4.96153 8.59275 4.96095 8.58202 4.96095C8.57362 4.96095 8.5655 4.96153 8.55709 4.96182C8.54636 4.9624 8.53564 4.96298 8.52491 4.96385C8.5165 4.96472 8.50838 4.96588 8.49998 4.96704C8.48954 4.96849 8.4791 4.97022 8.46867 4.97225C8.45997 4.97399 8.45127 4.97631 8.44257 4.97834C8.43388 4.98066 8.42344 4.98298 8.41387 4.98559C8.4043 4.9882 8.39416 4.99226 8.38459 4.99574C8.37821 4.99806 8.37154 4.9998 8.36517 5.00241C8.36314 5.00328 8.36169 5.00415 8.35966 5.00501C8.3498 5.00907 8.34023 5.01371 8.33038 5.01864C8.32255 5.02241 8.31443 5.02589 8.30689 5.02995C8.29935 5.03401 8.29066 5.03952 8.28254 5.04444C8.27442 5.04966 8.26543 5.0543 8.25732 5.05981C8.25065 5.06445 8.24427 5.06938 8.23789 5.0743C8.2292 5.08068 8.22021 5.08706 8.2118 5.09402C8.20542 5.09924 8.19962 5.10504 8.19325 5.11054C8.18542 5.11779 8.1773 5.12446 8.17005 5.132C8.16252 5.13953 8.15701 5.14649 8.15034 5.15403C8.14396 5.16128 8.13787 5.16737 8.13207 5.17433C8.12628 5.18128 8.1199 5.19027 8.1141 5.19868C8.10801 5.2068 8.10308 5.21288 8.09815 5.22013C8.09323 5.22738 8.08888 5.2355 8.08395 5.24333C8.07931 5.25115 8.07322 5.26072 8.06829 5.26971C8.06452 5.27696 8.06133 5.2842 8.05785 5.29116C8.05293 5.3016 8.04771 5.31204 8.04336 5.32276C8.04249 5.3245 8.04162 5.32595 8.04104 5.32769L4.44113 14.274C4.19442 14.3482 4.02539 14.5755 4.02539 14.8333C4.02539 16.1031 4.50346 17.1721 5.40801 17.9246C6.22034 18.6007 7.34787 18.973 8.58287 18.973C11.2832 18.973 13.1694 17.2705 13.1694 14.8333C13.1691 14.5634 12.9838 14.3288 12.7217 14.2656L9.48453 6.21956H16.9524C17.2336 6.82723 17.7694 7.27918 18.4156 7.45434V19.7309H14.8459C13.9477 19.7355 13.0643 19.9567 12.27 20.3756L11.3318 20.8824V20.6676C11.3318 20.3449 11.0445 20.0959 10.7218 20.0959H6.01349C5.69052 20.0892 5.42351 20.3449 5.41597 20.6676V34.3951C5.42119 34.7233 5.6853 34.9883 6.01349 34.9941H10.7218H10.7215C11.052 34.9891 11.3207 34.7256 11.3318 34.3951V33.8503L12.27 34.3531C13.0646 34.7705 13.9483 34.9906 14.8459 34.9941H22.3227C22.9173 34.9923 23.4893 34.7647 23.923 34.3577C24.3566 33.9506 24.6196 33.394 24.6588 32.8006C24.6979 32.2071 24.5106 31.6209 24.1343 31.1602C24.7495 30.8097 25.1731 30.1997 25.2864 29.5007C25.3998 28.8017 25.1905 28.0891 24.7173 27.5624C25.2667 27.2003 25.6378 26.6234 25.7401 25.9736C25.8422 25.3236 25.6659 24.6609 25.2542 24.1477C25.8671 23.8094 26.2974 23.2162 26.4293 22.5289C26.5609 21.8417 26.38 21.1315 25.9358 20.5908C25.4914 20.0498 24.8298 19.7347 24.1299 19.7306H19.5843V7.45406C20.2305 7.27895 20.7663 6.82697 21.0478 6.21928H28.5157L25.2788 14.2653C25.0168 14.3285 24.8315 14.5631 24.8312 14.833C24.8312 16.1028 25.3093 17.1718 26.2135 17.9243C27.0259 18.6004 28.1534 18.9727 29.3887 18.9727C32.089 18.9727 33.9752 17.2703 33.9752 14.833C33.9752 14.5753 33.8062 14.348 33.5591 14.2737L33.5588 14.2738ZM8.58266 17.8084C6.43151 17.8087 5.47386 16.5902 5.24802 15.4216H11.95C11.6558 17.0282 10.1128 17.8087 8.58266 17.8087V17.8084ZM11.4549 14.2532H5.71047L8.58266 7.11344L11.4549 14.2532ZM10.163 33.8254H6.58455V21.2639H10.163V33.8254ZM24.1295 20.8988C24.547 20.8988 24.9328 21.1214 25.1416 21.4829C25.3504 21.8445 25.3503 22.2901 25.1416 22.6516C24.9329 23.0131 24.547 23.2358 24.1295 23.2358H21.7194C21.3967 23.2358 21.1352 23.4973 21.1352 23.82C21.1352 24.1426 21.3967 24.4044 21.7194 24.4044H23.4264C24.0732 24.4044 24.5994 24.9628 24.5994 25.6093C24.5994 26.2561 24.0735 26.8142 23.4264 26.8142H21.2175C20.8948 26.8142 20.6333 27.0759 20.6333 27.3986C20.6333 27.7213 20.8948 27.9828 21.2175 27.9828H22.9747C23.3922 27.9828 23.7781 28.2055 23.9868 28.567C24.1956 28.9285 24.1956 29.3741 23.9868 29.7356C23.7781 30.0972 23.3922 30.3198 22.9747 30.3198H20.7156C20.393 30.3198 20.1315 30.5813 20.1315 30.904C20.1315 31.2267 20.393 31.4882 20.7156 31.4882H22.3223C22.7398 31.4882 23.1257 31.7111 23.3345 32.0727C23.5432 32.4342 23.5432 32.8795 23.3345 33.241C23.1257 33.6025 22.7398 33.8252 22.3223 33.8252H14.8455C14.1358 33.822 13.4371 33.6475 12.8091 33.3164L11.3314 32.5327V22.1992L12.8094 21.4116H12.8091C13.4368 21.0793 14.1355 20.9033 14.8455 20.8987L24.1295 20.8988ZM18.9997 6.36301C18.7112 6.36301 18.4349 6.24849 18.2312 6.04468C18.0274 5.84087 17.9128 5.56428 17.9128 5.27614C17.9128 4.98797 18.0274 4.71139 18.2312 4.50761C18.435 4.3038 18.7116 4.18928 18.9997 4.18928C19.2878 4.18928 19.5642 4.3038 19.768 4.50761C19.9718 4.71142 20.0864 4.98801 20.0864 5.27614C20.0861 5.56432 19.9715 5.84062 19.7677 6.04416C19.5639 6.24797 19.2876 6.36243 18.9997 6.36301ZM29.4171 7.11329L32.2892 14.2531H26.5449L29.4171 7.11329ZM29.3883 17.8082C27.2372 17.8082 26.2795 16.5897 26.0534 15.4213H32.7557C32.4615 17.028 30.9185 17.8085 29.3886 17.8085L29.3883 17.8082Z" fill="#FF0032"/>
</svg>
