<svg width="38" height="38" viewBox="0 0 38 38" fill="none" xmlns="http://www.w3.org/2000/svg">
<path d="M28.526 6.94974H24.9888V6.4418C24.9833 5.86197 24.7505 5.30737 24.3402 4.89716C23.9303 4.48665 23.3757 4.25355 22.7958 4.24775H21.9945V4.23007C21.9945 3.16028 21.4236 2.17168 20.4973 1.63701C19.5708 1.10212 18.4294 1.10212 17.503 1.63701C16.5765 2.17162 16.0059 3.1602 16.0059 4.23007V4.24775H15.2043C14.6244 4.25355 14.0698 4.48665 13.6598 4.89716C13.2499 5.30739 13.0171 5.86201 13.0113 6.4418V6.94974H9.47404C8.6269 6.9538 7.81628 7.29416 7.21964 7.89544C6.62328 8.49673 6.2896 9.31049 6.2925 10.1574V33.5526C6.29018 34.3984 6.62446 35.2101 7.22112 35.8093C7.81778 36.4083 8.62839 36.7458 9.47404 36.7466H28.526C29.3717 36.7458 30.1823 36.4083 30.7789 35.8093C31.3758 35.2101 31.7098 34.3983 31.7075 33.5526V10.1574C31.7104 9.31057 31.377 8.49676 30.7804 7.89544C30.1837 7.29415 29.3732 6.95375 28.526 6.94974ZM17.1743 4.23C17.1743 3.57768 17.5222 2.97496 18.0872 2.64877C18.652 2.32261 19.3481 2.32261 19.9129 2.64877C20.4779 2.97492 20.8258 3.57769 20.8258 4.23V4.24768H17.1743L17.1743 4.23ZM14.18 6.44179C14.1907 5.88051 14.643 5.42766 15.2043 5.41609H22.7961C23.3574 5.42768 23.8097 5.88053 23.8204 6.44179V9.79819H14.1801L14.18 6.44179ZM30.5393 33.5524C30.5419 34.0882 30.3311 34.6031 29.9534 34.9831C29.5756 35.3632 29.0619 35.5775 28.5261 35.578H9.47419C8.93842 35.5775 8.42466 35.3632 8.04696 34.9831C7.66949 34.6031 7.45843 34.0881 7.46133 33.5524V10.1572C7.45814 9.61996 7.66834 9.10335 8.04581 8.7212C8.42328 8.3388 8.93702 8.12194 9.47422 8.11817H13.0115V10.408C13.0115 10.7306 13.2997 10.9663 13.6223 10.9663H24.3774C24.7001 10.9663 24.9882 10.7306 24.9882 10.408L24.9885 8.11817H28.5258C29.063 8.12194 29.5767 8.3388 29.9542 8.7212C30.3317 9.1033 30.5419 9.61991 30.539 10.1572L30.5393 33.5524Z" fill="#FF0032"/>
<path d="M11.4548 27.0334H18.8338C19.1564 27.0334 19.4179 26.7719 19.4179 26.4492C19.4179 26.1265 19.1564 25.865 18.8338 25.865H11.4548C11.1321 25.865 10.8706 26.1265 10.8706 26.4492C10.8706 26.7719 11.1321 27.0334 11.4548 27.0334Z" fill="#FF0032"/>
<path d="M26.5449 29.8083H11.4548C11.1321 29.8083 10.8706 30.0699 10.8706 30.3925C10.8706 30.7152 11.1321 30.9767 11.4548 30.9767H26.5449C26.8676 30.9767 27.1294 30.7152 27.1294 30.3925C27.1294 30.0699 26.8676 29.8083 26.5449 29.8083Z" fill="#FF0032"/>
<path d="M14.0867 21.5805C15.6076 21.5805 16.7116 20.5722 16.7116 19.1832C16.7113 18.9791 16.6046 18.7897 16.4298 18.6842L14.9402 14.6909H17.7794C17.931 14.9361 18.1525 15.1304 18.4154 15.2484V21.9211H17.5158C17.1932 21.9211 16.9317 22.1826 16.9317 22.5053C16.9317 22.8279 17.1932 23.0894 17.5158 23.0894H20.4837C20.8064 23.0894 21.0679 22.8279 21.0679 22.5053C21.0679 22.1826 20.8064 21.9211 20.4837 21.9211H19.5841V15.2484C19.847 15.1304 20.0688 14.9361 20.2205 14.6909H23.0593L21.5695 18.6839V18.6842C21.3946 18.7897 21.2879 18.979 21.2879 19.1831C21.2879 20.5948 22.3615 21.5805 23.8984 21.5805C25.4193 21.5805 26.5233 20.5721 26.5233 19.1831C26.5233 18.9869 26.4244 18.8036 26.2603 18.6955L24.4602 13.8698C24.4582 13.8643 24.4553 13.8591 24.453 13.8536C24.4486 13.8431 24.4445 13.833 24.4396 13.8228C24.4356 13.8144 24.4315 13.8066 24.4269 13.7985C24.4225 13.7904 24.4179 13.7814 24.4127 13.773C24.4077 13.7646 24.4019 13.7562 24.3967 13.748C24.3912 13.7399 24.3866 13.733 24.3811 13.7257C24.3755 13.7185 24.3692 13.7101 24.3628 13.7025C24.3564 13.695 24.3509 13.688 24.3448 13.6814C24.3384 13.6747 24.3321 13.6677 24.3257 13.6614C24.3193 13.6547 24.3115 13.6474 24.3036 13.6408C24.2958 13.6341 24.2906 13.6295 24.2839 13.624C24.2758 13.6173 24.2677 13.6106 24.2593 13.6045C24.2526 13.5996 24.2457 13.595 24.2387 13.59C24.23 13.5842 24.2213 13.5784 24.212 13.5729C24.2045 13.5683 24.1967 13.5642 24.1888 13.5599C24.181 13.5558 24.1714 13.5506 24.1622 13.5463C24.1532 13.5419 24.1439 13.5381 24.1346 13.5344C24.1285 13.5318 24.1224 13.5289 24.1164 13.5265C24.114 13.5257 24.1117 13.5251 24.1094 13.5242C24.0995 13.5207 24.0894 13.5178 24.0793 13.5147C24.0708 13.512 24.0621 13.5094 24.0534 13.5074C24.0448 13.5054 24.0352 13.5033 24.0259 13.5016C24.0166 13.4999 24.0065 13.4975 23.9966 13.4961C23.9885 13.4949 23.9804 13.4944 23.9723 13.4935C23.9613 13.4923 23.9502 13.4909 23.9398 13.4906H23.9178H23.883C23.8757 13.4906 23.8685 13.492 23.8615 13.4926C23.8496 13.4938 23.8378 13.4946 23.8262 13.4964C23.8189 13.4975 23.8122 13.499 23.8053 13.5004C23.7931 13.5028 23.7812 13.5048 23.7693 13.5077C23.7627 13.5094 23.756 13.5118 23.7493 13.5135C23.7392 13.5164 23.7293 13.519 23.7195 13.5225L20.3744 13.5222C20.255 13.1259 19.97 12.8003 19.5931 12.6293C19.2159 12.4582 18.7837 12.4582 18.4065 12.6293C18.0296 12.8003 17.7449 13.1259 17.6252 13.5222H14.279C14.2709 13.5193 14.2625 13.5173 14.2541 13.5149C14.2456 13.5126 14.2367 13.5094 14.228 13.5077C14.2193 13.5057 14.2097 13.5039 14.2007 13.5019C14.1917 13.5002 14.181 13.4978 14.1714 13.4964C14.1633 13.4952 14.1552 13.4946 14.1474 13.4938C14.1363 13.4926 14.1253 13.4912 14.1146 13.4906H14.0923H14.0575C14.0502 13.4906 14.043 13.492 14.0355 13.4926C14.0236 13.4938 14.012 13.4946 14.0004 13.4964C13.9931 13.4975 13.9862 13.499 13.9792 13.5004C13.9673 13.5028 13.9554 13.5048 13.9438 13.5077C13.9372 13.5094 13.9302 13.5118 13.9235 13.5135C13.9117 13.517 13.8998 13.5207 13.8882 13.5248C13.8861 13.5257 13.8841 13.526 13.8824 13.5268C13.8769 13.5289 13.8722 13.5315 13.867 13.5335C13.8563 13.5378 13.8459 13.5422 13.8354 13.5471C13.8276 13.5509 13.8198 13.555 13.8119 13.5593C13.8029 13.5639 13.7942 13.5689 13.7855 13.5738C13.7768 13.5787 13.7696 13.5839 13.7615 13.5892C13.7537 13.5944 13.7458 13.5996 13.7383 13.6054C13.7308 13.6109 13.7232 13.617 13.7157 13.6231C13.7084 13.6292 13.7012 13.6353 13.6936 13.6416C13.6864 13.648 13.6803 13.6541 13.6739 13.6605C13.6676 13.6669 13.6597 13.675 13.6531 13.6825C13.6473 13.6889 13.6417 13.6956 13.6362 13.7022C13.6296 13.7103 13.6232 13.7185 13.6168 13.7269C13.6116 13.7338 13.607 13.7408 13.6023 13.748C13.5965 13.7564 13.5907 13.7651 13.5855 13.7741C13.5803 13.7831 13.5762 13.7904 13.5719 13.7988C13.5675 13.8069 13.5632 13.8153 13.5588 13.8237C13.5542 13.8336 13.5498 13.844 13.5458 13.8541C13.5435 13.8597 13.5409 13.8649 13.5385 13.8704L11.739 18.6955C11.5749 18.8036 11.4761 18.9869 11.4761 19.1831C11.4764 20.5948 12.5496 21.5805 14.0868 21.5805L14.0867 21.5805ZM23.8984 20.4478C23.3794 20.4478 22.8338 20.2413 22.5891 19.8033H25.2166C24.9618 20.2413 24.3987 20.4478 23.8983 20.4478H23.8984ZM23.9129 15.781L24.9775 18.6346H22.8486L23.9129 15.781ZM19 13.6698C19.1081 13.6698 19.2058 13.735 19.2473 13.8351C19.2887 13.9354 19.2658 14.0505 19.1893 14.127C19.1128 14.2036 18.9974 14.2265 18.8973 14.185C18.7973 14.1435 18.7321 14.0458 18.7321 13.9377C18.7321 13.7898 18.8521 13.6701 19 13.6698ZM14.0868 15.7813L15.1511 18.6346H13.0222L14.0868 15.7813ZM15.4047 19.8033C15.1502 20.2413 14.5869 20.4477 14.0868 20.4477C13.5675 20.4477 13.0222 20.2413 12.7775 19.8033H15.4047Z" fill="#FF0032"/>
</svg>
