<svg width="24" height="24" viewBox="0 0 24 24" fill="none" xmlns="http://www.w3.org/2000/svg">
<path d="M22.8468 6.60661C22.8184 6.53801 22.7703 6.47938 22.7085 6.43816C22.6468 6.39693 22.5742 6.37497 22.4999 6.37505H19.4249C19.0749 5.70223 18.5484 5.13735 17.9018 4.74098C17.2552 4.34461 16.513 4.13169 15.7546 4.12505C15.2179 4.11734 14.685 4.21751 14.1877 4.41962C13.6904 4.62173 13.2388 4.92166 12.8596 5.30161C12.4673 5.68572 12.156 6.14451 11.9439 6.65091C11.7319 7.1573 11.6234 7.70105 11.6249 8.25005V9.2963C7.53272 8.41598 4.12491 5.0213 4.08835 4.9838C4.03812 4.93312 3.97449 4.89783 3.90491 4.88205C3.83533 4.86628 3.7627 4.87068 3.69553 4.89473C3.62822 4.91895 3.56925 4.96192 3.52556 5.01857C3.48187 5.07521 3.4553 5.14317 3.44897 5.21442C3.05522 9.58505 4.31803 12.4997 5.44678 14.176C6.06039 15.1063 6.8294 15.9241 7.72022 16.5938C6.25022 18.5147 3.64585 19.5122 3.61866 19.5225C3.5652 19.5422 3.51693 19.5738 3.47749 19.6149C3.43806 19.6559 3.4085 19.7055 3.39106 19.7597C3.37362 19.8139 3.36876 19.8714 3.37684 19.9278C3.38493 19.9841 3.40575 20.0379 3.43772 20.085C3.46303 20.1225 3.69928 20.46 4.3321 20.775C5.13085 21.1725 6.19678 21.375 7.49991 21.375C13.9771 21.375 19.3808 16.3538 19.8646 9.91598L22.7652 7.01536C22.8177 6.96294 22.8535 6.89612 22.868 6.82336C22.8825 6.7506 22.8751 6.67517 22.8468 6.60661ZM19.2346 9.48473C19.1701 9.54942 19.1314 9.63543 19.1258 9.72661C18.7358 15.8382 13.6293 20.625 7.49991 20.625C5.82647 20.625 4.9096 20.2604 4.45303 19.981C5.42522 19.5291 7.40147 18.4491 8.5621 16.7082C8.59031 16.6656 8.60953 16.6176 8.61856 16.5673C8.62758 16.517 8.62624 16.4654 8.6146 16.4157C8.60331 16.3657 8.58172 16.3186 8.55121 16.2775C8.5207 16.2363 8.48194 16.2019 8.43741 16.1766C8.42522 16.1691 7.1821 15.4266 6.04491 13.725C5.06241 12.2541 3.97397 9.76036 4.14272 6.06098C5.37741 7.15036 8.40647 9.52973 11.938 10.1204C11.9922 10.1294 12.0477 10.1265 12.1006 10.1117C12.1535 10.097 12.2025 10.0708 12.2442 10.0351C12.2859 9.99928 12.3192 9.9548 12.3418 9.90474C12.3643 9.85468 12.3757 9.80027 12.3749 9.74536V8.25005C12.3742 7.80042 12.4632 7.35517 12.637 6.94045C12.8107 6.52574 13.0655 6.14991 13.3865 5.83505C13.6964 5.52535 14.0652 5.28085 14.4711 5.11597C14.877 4.95109 15.3118 4.86917 15.7499 4.87505C17.0812 4.89192 18.3271 5.70567 18.8493 6.90098C18.8782 6.96687 18.9256 7.02303 18.9856 7.06276C19.0456 7.10249 19.1158 7.12411 19.1877 7.12505H21.5943L19.2346 9.48473Z" fill="#FF0032"/>
</svg>
