<svg width="38" height="38" viewBox="0 0 38 38" fill="none" xmlns="http://www.w3.org/2000/svg">
<path d="M7.30867 31.6666C6.57928 31.6666 5.97075 31.4228 5.48308 30.9351C4.99542 30.4474 4.75106 29.8384 4.75 29.1079V13.6419C4.75 12.9125 4.99436 12.304 5.48308 11.8163C5.97181 11.3287 6.57981 11.0843 7.30708 11.0833H14.25V8.89034C14.25 8.16201 14.4944 7.55348 14.9831 7.06476C15.4718 6.57603 16.0803 6.3322 16.8087 6.33326H21.1929C21.9213 6.33326 22.5298 6.57709 23.0185 7.06476C23.5072 7.55242 23.7511 8.16095 23.75 8.89034V11.0833H30.6929C31.4213 11.0833 32.0293 11.3276 32.5169 11.8163C33.0046 12.3051 33.2489 12.9136 33.25 13.6419V29.1095C33.25 29.8378 33.0056 30.4464 32.5169 30.9351C32.0282 31.4238 31.4202 31.6676 30.6929 31.6666H7.30867ZM15.8333 11.0833H22.1667V8.89034C22.1667 8.64756 22.0653 8.42431 21.8627 8.22059C21.66 8.01687 21.4368 7.91553 21.1929 7.91659H16.8071C16.5643 7.91659 16.3411 8.01792 16.1373 8.22059C15.9336 8.42326 15.8323 8.64651 15.8333 8.89034V11.0833ZM31.6667 22.9583H22.1667V25.3333H15.8333V22.9583H6.33333V29.1095C6.33333 29.3523 6.43467 29.5755 6.63733 29.7793C6.84 29.983 7.06325 30.0843 7.30708 30.0833H30.6929C30.9357 30.0833 31.1589 29.9819 31.3627 29.7793C31.5664 29.5766 31.6677 29.3528 31.6667 29.1079V22.9583ZM17.4167 23.7499H20.5833V20.5833H17.4167V23.7499ZM6.33333 21.3749H15.8333V18.9999H22.1667V21.3749H31.6667V13.6419C31.6667 13.3981 31.5653 13.1743 31.3627 12.9706C31.16 12.7669 30.9368 12.6655 30.6929 12.6666H7.30708C7.06431 12.6666 6.84106 12.7679 6.63733 12.9706C6.43361 13.1733 6.33228 13.397 6.33333 13.6419V21.3749Z" fill="#FF0032"/>
</svg>
